# xmcd
#
# Track frame offsets:
#	150
#	15745
#	35757
#	47684
#	68615
#	88050
#	110100
#	130878
#	154210
#	172404
#	189035
#	212305
#	229161
#	241585
#	255310
#	272095
#	290407
#	305354
#	319304
#	332942
#
# Disc length: 4746
#
# Revision: 4
# Processed by: cddbd v1.5.1PL0 Copyright (c) Steve Scherf et al.
# Submitted via: OrangeCD 5.2
# Normalized: r3:DSETVAR1
#
DISCID=1c128814
DTITLE=Various Artist - Line Dance Fever 2
DYEAR=1997
DGENRE=Country
TTITLE0=The Groove Grass Boyz - Macarena (Club Mix)
TTITLE1=Smokin' Armadillos - I'm A Cowboy (Dance Mix)
TTITLE2=Kimber Clayton - Ring of Fire (Dance Mix)
TTITLE3=Tim McGraw - Indian Outlaw (Dance Mix)
TTITLE4=David Kersch - Breaking Hearts and Taking Names (Dance Mix)
TTITLE5=Wynonna - To Be Loved By You
TTITLE6=Jeff Carson - Betty's Taking Judo (Dance Mix)
TTITLE7=Ronnie McDowell - Yippy Ti Yi Yo
TTITLE8=Baker and Myers - A Little Bit of Honey (Dance Mix)
TTITLE9=Junior Brown - Surf Medley (Edit)
TTITLE10=Hank Williams Jr. - A Little Less Talk And A Lot More Action (Dance Mix)
TTITLE11=LeAnn Rimes - One Way Ticket
TTITLE12=JoDee Messina - Do You Wanna Make Something Of It
TTITLE13=Boy Howdy - Bring On The Teardrops
TTITLE14=Philip Claypool - Mile Out Of Memphis
TTITLE15=Sawyer Brown - Round Here
TTITLE16=Delbert McClinton - Why Me
TTITLE17=Jeff Moore - She's Over You
TTITLE18=Ruby Lovette - He's Your Problem Now
TTITLE19=Hal Ketchum - Hearts Are Gonna Roll (Dance Mix)
EXTD=
EXTT0=
EXTT1=
EXTT2=
EXTT3=
EXTT4=
EXTT5=
EXTT6=
EXTT7=
EXTT8=
EXTT9=
EXTT10=
EXTT11=
EXTT12=
EXTT13=
EXTT14=
EXTT15=
EXTT16=
EXTT17=
EXTT18=
EXTT19=
PLAYORDER=
